#!OML:ASF F:\VICON\USERDATA\INSTALL\Justin_Nancy\Justin_Nancy.ASF
:FULLY-SPECIFIED
:DEGREES
383
root -0.393805 17.3687 28.9674 0.921755 -0.266046 -5.88019
lowerback 7.48471 1.02352 4.11582
upperback 1.35352 1.7909 3.33374
thorax -2.77791 0.865755 0.961374
lowerneck -16.4337 -3.13365 -9.47289
upperneck 19.4923 -3.14717 5.76331
head 9.07795 -1.55869 3.15196
rclavicle 3.18055e-015 7.95139e-016
rhumerus -25.0214 -10.4789 -79.2836
rradius 29.3144
rwrist 5.03425
rhand -16.5268 12.6641
rfingers 7.12502
rthumb 9.69194 -17.0929
lclavicle 3.18055e-015 7.95139e-016
lhumerus -32.7619 12.3722 83.6434
lradius 25.9658
lwrist -9.52653
lhand -16.4186 23.0857
lfingers 7.12502
lthumb 9.79626 412.838
rfemur -0.49463 4.09435 32.2271
rtibia 17.1804
rfoot -11.631 -7.58176
rtoes 3.57742
lfemur -31.4156 1.13074 -13.7244
ltibia 53.0669
lfoot -7.86709 8.93058
ltoes 2.20885
384
root -0.387834 17.3627 29.1136 1.02606 -0.296956 -5.8362
lowerback 7.4572 1.07952 4.11847
upperback 1.27086 1.86735 3.30676
thorax -2.84631 0.902074 0.924387
lowerneck -16.2821 -3.13082 -9.51555
upperneck 19.4098 -3.13952 5.74178
head 9.02181 -1.56169 3.15195
rclavicle 5.01931e-015 2.38542e-015
rhumerus -24.8791 -10.2761 -79.2552
rradius 29.7676
rwrist 5.10409
rhand -16.3284 11.8258
rfingers 7.12502
rthumb 9.88335 -17.9223
lclavicle 5.01931e-015 2.38542e-015
lhumerus -32.8296 12.8189 83.5763
lradius 25.6416
lwrist -9.5528
lhand -16.5231 24.1551
lfingers 7.12502
lthumb 9.69544 413.912
rfemur 0.224255 4.07381 32.1817
rtibia 16.6744
rfoot -11.734 -7.59289
rtoes 3.40389
lfemur -31.6957 0.997145 -13.7744
ltibia 51.2055
lfoot -7.99357 9.10838
ltoes 1.7943
385
root -0.381234 17.3612 29.2557 1.27028 -0.333899 -5.53221
lowerback 7.30441 1.17194 3.81655
upperback 1.24754 1.95623 3.24707
thorax -2.79205 0.949605 1.02564
lowerneck -16.6424 -3.18312 -9.76912
upperneck 19.5875 -3.13489 5.8359
head 9.15504 -1.56537 3.22866
rclavicle 3.63279e-014 -7.95139e-016
rhumerus -24.5452 -10.1336 -79.2172
rradius 30.2395
rwrist 5.21173
rhand -16.0396 10.2187
rfingers 7.12502
rthumb 10.1619 -19.5159
lclavicle 3.63279e-014 -7.95139e-016
lhumerus -32.8878 13.1538 83.5732
lradius 25.4729
lwrist -9.76314
lhand -15.1816 26.0184
lfingers 7.12502
lthumb 10.9896 415.711
rfemur 0.669988 4.04807 31.8263
rtibia 16.3218
rfoot -11.9745 -7.62126
rtoes 3.26767
lfemur -32.03 0.849082 -14.1106
ltibia 49.1734
lfoot -7.73043 8.97055
ltoes 2.29807
386
root -0.379598 17.3618 29.3963 1.4749 -0.367157 -5.28513
lowerback 7.0504 1.23267 3.54724
upperback 1.27111 1.99707 3.14896
thorax -2.63112 0.974281 1.07671
lowerneck -16.7012 -3.28472 -9.87295
upperneck 19.4912 -3.26209 5.93528
head 9.14723 -1.61977 3.26221
rclavicle -1.78409e-014 -2.14687e-014
rhumerus -24.1267 -9.78378 -79.3909
rradius 30.3534
rwrist 4.52663
rhand -16.1637 9.76375
rfingers 7.12502
rthumb 10.0422 -19.9767
lclavicle -1.78409e-014 -2.14687e-014
lhumerus -32.8512 13.5817 83.3889
lradius 25.1042
lwrist -10.1006
lhand -14.1562 27.7179
lfingers 7.12502
lthumb 11.9785 417.355
rfemur 1.12974 4.05766 31.5783
rtibia 16.026
rfoot -12.2259 -7.73616
rtoes 2.45721
lfemur -32.2616 0.613984 -14.3445
ltibia 47.0164
lfoot -7.14126 8.91348
ltoes 2.77415
387
root -0.375373 17.3589 29.5332 1.62778 -0.389333 -5.28144
lowerback 6.95269 1.26234 3.59693
upperback 1.23742 2.03389 3.07654
thorax -2.60677 0.992036 0.972682
lowerneck -16.5639 -3.44255 -9.95431
upperneck 19.2181 -3.48249 6.00924
head 9.05046 -1.71959 3.26908
rclavicle -1.65488e-014 1.19271e-015
rhumerus -23.862 -9.48332 -79.5658
rradius 30.5873
rwrist 3.91416
rhand -16.3697 9.99191
rfingers 7.12502
rthumb 9.84349 -19.758
lclavicle -1.65488e-014 1.19271e-015
lhumerus -32.8775 13.8683 83.2141
lradius 24.7757
lwrist -10.2929
lhand -13.9415 28.1991
lfingers 7.12502
lthumb 12.1855 417.824
rfemur 1.63284 4.12765 31.6046
rtibia 15.6085
rfoot -12.2929 -7.86753
rtoes 1.6652
lfemur -32.4276 0.390268 -14.2828
ltibia 44.8223
lfoot -6.32686 8.80621
ltoes 2.78975
388
root -0.370796 17.3516 29.6674 1.86723 -0.378275 -5.41696
lowerback 6.91776 1.28589 3.67771
upperback 1.22656 2.07116 3.13006
thorax -2.59736 1.01012 0.980299
lowerneck -17.1067 -3.4392 -9.81519
upperneck 19.4048 -3.3939 5.70064
head 9.19872 -1.6954 3.14955
rclavicle 5.91384e-015 -1.59028e-015
rhumerus -23.5232 -9.06766 -79.6604
rradius 31.082
rwrist 3.39016
rhand -16.5564 10.2018
rfingers 7.12502
rthumb 9.66334 -19.5565
lclavicle 5.91384e-015 -1.59028e-015
lhumerus -32.943 14.3428 83.1763
lradius 24.7223
lwrist -10.3369
lhand -14.4416 27.8473
lfingers 7.12502
lthumb 11.7032 417.5
rfemur 2.2739 4.25288 31.7766
rtibia 14.8066
rfoot -12.1934 -7.8919
rtoes 2.20732
lfemur -32.7671 0.000969838 -13.9946
ltibia 42.6292
lfoot -5.6287 8.57234
ltoes 2.93026
389
root -0.364568 17.3451 29.8029 2.07737 -0.423644 -5.36041
lowerback 6.93224 1.33655 3.55604
upperback 1.19999 2.13193 3.13312
thorax -2.63699 1.04078 1.04526
lowerneck -17.5547 -3.1889 -9.47559
upperneck 19.6286 -3.03813 5.43325
head 9.317 -1.52987 3.04854
rclavicle 4.37326e-015 -2.18663e-014
rhumerus -23.2286 -8.90334 -79.6862
rradius 31.574
rwrist 3.3506
rhand -16.4147 10.6462
rfingers 7.12502
rthumb 9.80012 -19.1057
lclavicle 4.37326e-015 -2.18663e-014
lhumerus -32.9793 14.9629 83.0444
lradius 24.4501
lwrist -10.6382
lhand -14.2203 27.9639
lfingers 7.12502
lthumb 11.9167 417.605
rfemur 3.46989 4.40337 31.7251
rtibia 13.1735
rfoot -11.7395 -7.84509
rtoes 2.71588
lfemur -33.0941 -0.503909 -13.8632
ltibia 40.4482
lfoot -5.07946 8.34036
ltoes 4.46872
390
root -0.357333 17.3566 29.9431 2.24304 -0.565188 -5.38556
lowerback 7.01009 1.42861 3.66411
upperback 1.03091 2.27285 3.05696
thorax -2.84719 1.10575 0.889248
lowerneck -17.0647 -3.08306 -9.21187
upperneck 19.2919 -3.00632 5.44726
head 9.10301 -1.49599 3.01135
rclavicle 4.39811e-014 2.14687e-014
rhumerus -23.2903 -8.86683 -79.7175
rradius 32.1373
rwrist 3.78571
rhand -16.202 11.2417
rfingers 7.12502
rthumb 10.0053 -18.5005
lclavicle 4.39811e-014 2.14687e-014
lhumerus -33.2487 15.4871 82.7211
lradius 24.2621
lwrist -10.8893
lhand -13.2335 28.6248
lfingers 7.12502
lthumb 12.8681 418.208
rfemur 4.37568 4.44596 31.736
rtibia 12.1379
rfoot -11.3678 -7.48594
rtoes 4.51022
lfemur -33.4486 -1.11871 -13.5459
ltibia 38.2768
lfoot -4.40672 8.41896
ltoes 6.65676
391
root -0.354173 17.3913 30.0993 2.34018 -0.725468 -5.5516
lowerback 6.93821 1.52563 3.88529
upperback 0.967327 2.41601 3.0222
thorax -2.86078 1.17375 0.718117
lowerneck -16.4104 -3.43734 -9.12811
upperneck 18.315 -3.55544 5.44846
head 8.69272 -1.74534 2.9179
rclavicle 3.01656e-014 3.49861e-014
rhumerus -23.385 -8.72091 -79.8041
rradius 32.7502
rwrist 3.7339
rhand -16.3151 11.7418
rfingers 7.12502
rthumb 9.89615 -18.0056
lclavicle 3.01656e-014 3.49861e-014
lhumerus -33.4999 15.6965 82.5205
lradius 24.3194
lwrist -11.2054
lhand -12.4146 28.9985
lfingers 7.12502
lthumb 13.6575 418.53
rfemur 5.18502 4.55662 31.924
rtibia 11.4931
rfoot -11.2004 -7.27116
rtoes 5.16183
lfemur -33.953 -1.75106 -13.0106
ltibia 36.0817
lfoot -3.51979 8.50306
ltoes 4.7154
392
root -0.34154 17.3137 30.2482 2.44205 -0.79914 -5.67219
lowerback 6.66433 1.58192 4.01307
upperback 1.08192 2.47692 3.01582
thorax -2.5825 1.20776 0.645065
lowerneck -16.9283 -2.9738 -9.07
upperneck 18.9432 -2.92587 5.57847
head 8.95018 -1.43147 3.03979
rclavicle -1.82385e-014 -2.38542e-014
rhumerus -23.1273 -8.69164 -79.871
rradius 33.0509
rwrist 3.71604
rhand -16.4036 12.2689
rfingers 7.12502
rthumb 9.81077 -17.4825
lclavicle -1.82385e-014 -2.38542e-014
lhumerus -33.368 15.9706 82.4099
lradius 24.0038
lwrist -12.3185
lhand -12.2614 29.0369
lfingers 7.12502
lthumb 13.8051 418.559
rfemur 5.79011 4.51339 32.0582
rtibia 11.2411
rfoot -11.523 -7.49915
rtoes 3.752
lfemur -33.1215 -2.11332 -12.7678
ltibia 33.8871
lfoot -4.13225 8.23046
ltoes -1.701
393
root -0.326324 17.2835 30.3924 2.62078 -0.813139 -5.68575
lowerback 6.34403 1.6001 4.04737
upperback 1.16898 2.47879 3.01962
thorax -2.3122 1.21327 0.641122
lowerneck -17.0892 -2.8089 -9.09109
upperneck 18.9852 -2.68949 5.63292
head 8.97529 -1.31468 3.09309
rclavicle -3.926e-015 1.47101e-014
rhumerus -22.7601 -8.54842 -79.923
rradius 33.3436
rwrist 3.65771
rhand -16.161 11.8814
rfingers 7.12502
rthumb 10.0449 -17.8589
lclavicle -3.926e-015 1.47101e-014
lhumerus -33.3027 16.6824 82.2165
lradius 23.5472
lwrist -12.8513
lhand -12.7273 28.1422
lfingers 7.12502
lthumb 13.356 417.694
rfemur 6.05873 4.34942 32.0161
rtibia 11.3762
rfoot -12.0012 -7.63974
rtoes 2.24787
lfemur -32.8669 -2.92973 -12.4538
ltibia 31.7317
lfoot -4.33837 8.49443
ltoes -6.82372
394
root -0.316602 17.2684 30.533 2.76239 -0.892514 -5.68863
lowerback 6.34851 1.66172 4.06239
upperback 1.14294 2.5623 2.9834
thorax -2.33783 1.25399 0.588204
lowerneck -17.1769 -2.83701 -9.19256
upperneck 18.9951 -2.71674 5.73955
head 8.99975 -1.32229 3.14345
rclavicle -1.23246e-014 -2.38542e-015
rhumerus -22.4944 -8.36162 -80.0497
rradius 33.8311
rwrist 2.91579
rhand -15.7431 10.7638
rfingers 7.12502
rthumb 10.448 -18.9566
lclavicle -1.23246e-014 -2.38542e-015
lhumerus -33.304 16.9265 82.146
lradius 23.4243
lwrist -12.0672
lhand -12.282 27.8538
lfingers 7.12502
lthumb 13.7853 417.377
rfemur 5.96583 4.4208 32.0142
rtibia 12.2443
rfoot -12.8283 -7.93981
rtoes 0.316462
lfemur -32.8331 -3.92527 -11.9845
ltibia 29.6717
lfoot -4.50192 9.1124
ltoes -7.98437
395
root -0.307518 17.2556 30.6794 2.91699 -1.08457 -5.77199
lowerback 6.29203 1.74257 4.13362
upperback 1.15331 2.66959 2.95866
thorax -2.28915 1.30757 0.516713
lowerneck -17.4439 -2.85342 -9.23653
upperneck 19.0571 -2.71359 5.78403
head 9.07054 -1.31629 3.16706
rclavicle 9.79014e-015 -1.55052e-014
rhumerus -22.2065 -8.16377 -80.1798
rradius 34.0318
rwrist 2.74573
rhand -15.7755 10.7239
rfingers 7.12502
rthumb 10.4167 -18.9981
lclavicle 9.79014e-015 -1.55052e-014
lhumerus -33.2136 16.8761 82.1459
lradius 23.2643
lwrist -12.0561
lhand -12.0462 27.4449
lfingers 7.12502
lthumb 14.0124 416.953
rfemur 6.42034 4.45983 32.0766
rtibia 12.1064
rfoot -13.1235 -7.9761
rtoes -1.05302
lfemur -32.8058 -4.71514 -11.443
ltibia 27.7732
lfoot -4.6905 9.69731
ltoes -9.69086
